<?xml version="1.0" encoding="utf-8"?>
<!-- Generator: Adobe Illustrator 21.0.2, SVG Export Plug-In . SVG Version: 6.00 Build 0)  -->
<svg version="1.1" id="Layer_1" xmlns="http://www.w3.org/2000/svg" xmlns:xlink="http://www.w3.org/1999/xlink" x="0px" y="0px"
	 viewBox="0 0 1148 283.5" style="enable-background:new 0 0 1148 283.5;" xml:space="preserve">
<style type="text/css">
	.st0{fill:#435B69;}
</style>
<g id="XMLID_110_">
	<path id="XMLID_126_" class="st0" d="M197.1,160.2c0,16.5-10.5,21.6-20.7,21.6c-9.9,0-21-5.1-21-21.6V82.7h-48.1v87.7
		c0,29.4,23.7,55.6,69.1,55.6c45.7,0,68.8-26.1,68.8-55.6V82.7h-48.1V160.2z"/>
	<polygon id="XMLID_125_" class="st0" points="274.8,123.9 274.8,222.4 322.9,222.4 322.9,82.7 274.8,82.7 	"/>
	<path id="XMLID_124_" class="st0" d="M298.7,7.3c-16.2,0-28.8,12.9-28.8,29.1c0,16.2,12.6,28.8,28.8,28.8
		c16.2,0,29.1-12.6,29.1-28.8C327.8,20.2,314.9,7.3,298.7,7.3z"/>
	<path id="XMLID_123_" class="st0" d="M419.6,122.7c13.5,0,23.1,9,26.1,22.2l47.5-9.3c-7.2-34.5-37.2-56.5-73.9-56.5
		c-41.8,0-75.1,30.6-75.1,73.3c0,42.7,33.3,73.6,75.1,73.6c36.6,0,67-21.9,73.9-56.5l-47.5-9.3c-3,13.2-12.6,22.2-26.1,22.2
		c-15.9,0-27.3-12.9-27.3-30C392.3,135,403.7,122.7,419.6,122.7z"/>
	<path id="XMLID_120_" class="st0" d="M578.2,79.1c-42.4,0-73.9,30.9-73.9,73.3c0,42.7,32.1,73.6,74.5,73.6
		c32.4,0,59.2-13.5,71.8-45.7l-47.5-7.8c-3.9,8.1-13.5,12.6-23.1,12.6c-13.8,0-23.1-9.3-25.2-19.2h98.5v-2.7
		C653.3,103.7,617.5,79.1,578.2,79.1z M553.3,135.9c2.4-10.5,12-18.3,24.9-18.3s22.5,7.8,24.9,18.3H553.3z"/>
	<path id="XMLID_117_" class="st0" d="M914.9,79.1c-41.8,0-75.1,30.6-75.1,73.3c0,42.7,33.3,73.6,75.1,73.6
		c41.8,0,75.1-30.9,75.1-73.6C990,109.8,956.7,79.1,914.9,79.1z M914.9,182.4c-15.9,0-27-12.9-27-30c0-17.4,11.1-29.7,27-29.7
		c15.6,0,27,12.3,27,29.7C942,169.5,930.5,182.4,914.9,182.4z"/>
	<polygon id="XMLID_116_" class="st0" points="1140.8,82.7 1087,82.7 1068.1,117.9 1050.1,82.7 994.5,82.7 1034.8,152.4 
		993.9,222.4 1049.2,222.4 1067.2,186.4 1085.8,222.4 1140.8,222.4 1100.9,151.5 	"/>
	<path id="XMLID_115_" class="st0" d="M12.9,124.2h18.3v102.7c0,5.4-2.7,7.5-10.8,7.5H6.9v41.2h22.5c19.5,0,49.9-1.2,49.9-35.7V83.1
		H12.9V124.2z"/>
	<path id="XMLID_114_" class="st0" d="M53.5,7.7c-16.2,0-28.8,12.9-28.8,29.1c0,16.2,12.6,28.8,28.8,28.8
		c16.2,0,29.1-12.6,29.1-28.8C82.6,20.6,69.7,7.7,53.5,7.7z"/>
	<path id="XMLID_111_" class="st0" d="M761.1,79.1c-21.9,0-35.1,9-41.5,18.9c0,0,1.2-8.4,1.2-18.6V12.1h-48.1v210.3h48.1v-15.3
		c6.3,9.6,20.4,18.9,40.3,18.9c36.3,0,65.5-30.9,65.5-73.6C826.6,109.8,797.5,79.1,761.1,79.1z M748.2,182.4
		c-16.5,0-28.2-13.8-28.2-30c0-16.5,11.7-29.7,28.2-29.7c16.8,0,28.5,13.2,28.5,29.7C776.7,168.6,765,182.4,748.2,182.4z"/>
</g>
</svg>
